<svg xmlns="http://www.w3.org/2000/svg" xmlns:xlink="http://www.w3.org/1999/xlink" width="800" height="800" viewBox="0 0 800 800">
  <defs>
    <clipPath id="clip-C_1">
      <rect width="800" height="800"/>
    </clipPath>
  </defs>
  <g id="C_1" data-name="C – 1" clip-path="url(#clip-C_1)">
    <g id="logo-cmptt">
      <path id="Path_86" data-name="Path 86" d="M0,0H800V800H0Z" fill="none"/>
      <g id="Group_11" data-name="Group 11">
        <path id="Path_24" data-name="Path 24" d="M207.89,215.22s-9.55,19.11-19.41,25.92-23.14,4.19-23.14,4.19,2.82-14.02,12.54-21.06S207.89,215.22,207.89,215.22Z" fill="#fff"/>
        <path id="Path_25" data-name="Path 25" d="M160.95,217.15s2.2,17.35-1.06,26.75-12.71,14.26-12.71,14.26-4.24-10.65-1.16-20.13S160.95,217.15,160.95,217.15Z" fill="#fff"/>
        <path id="Path_26" data-name="Path 26" d="M130.43,246.51s6.37,16.26,5.57,26.35-8.62,17.52-8.62,17.52-6.67-9.16-6.06-19.27S130.43,246.51,130.43,246.51Z" fill="#fff"/>
        <path id="Path_27" data-name="Path 27" d="M109.95,281.37s8.65,16.05,9.34,26.82-5.89,19.97-5.89,19.97-7.9-8.51-8.79-19.27S109.95,281.37,109.95,281.37Z" fill="#fff"/>
        <path id="Path_28" data-name="Path 28" d="M97.07,320.77s10.35,15.03,12.25,25.78-3.58,20.83-3.58,20.83-8.76-7.55-10.85-18.26S97.07,320.77,97.07,320.77Z" fill="#fff"/>
        <path id="Path_29" data-name="Path 29" d="M90.45,365.12s13.43,12.7,17.72,23.12,1.28,21.97,1.28,21.97S99.26,404.7,94.8,394.37,90.45,365.12,90.45,365.12Z" fill="#fff"/>
        <path id="Path_30" data-name="Path 30" d="M92.09,408.88s16.08,10.09,22.67,19.81,6.29,22.19,6.29,22.19-11.26-3.43-18-13.03S92.09,408.88,92.09,408.88Z" fill="#fff"/>
        <path id="Path_31" data-name="Path 31" d="M102.84,452.79s17.65,6.66,25.95,14.94,10.38,20.73,10.38,20.73-11.66-1.05-20.09-9.19C110.65,471.15,102.84,452.79,102.84,452.79Z" fill="#fff"/>
        <path id="Path_32" data-name="Path 32" d="M130.71,377.99s3.74,18.09,1.34,28.55-11.38,17.01-11.38,17.01-5.17-10.68-2.96-21.2S130.71,377.99,130.71,377.99Z" fill="#fff"/>
        <path id="Path_33" data-name="Path 33" d="M136.23,414.39s6.81,17.13,6.29,27.96-8.12,19.13-8.12,19.13-6.91-9.52-6.59-20.36S136.23,414.39,136.23,414.39Z" fill="#fff"/>
        <path id="Path_34" data-name="Path 34" d="M149.69,449.43s8.1,16.35,8.43,27.23-6.56,20.02-6.56,20.02-7.6-8.73-8.13-19.6S149.69,449.43,149.69,449.43Z" fill="#fff"/>
        <path id="Path_35" data-name="Path 35" d="M134.94,341.34s-.58,18.36-5.37,27.74-15.09,13.23-15.09,13.23-2.55-11.65,2.07-21.13S134.94,341.34,134.94,341.34Z" fill="#fff"/>
        <path id="Path_36" data-name="Path 36" d="M145.68,306.25s-4.27,17.52-10.86,25.36-17.46,9.05-17.46,9.05-.15-11.82,6.29-19.81S145.68,306.25,145.68,306.25Z" fill="#fff"/>
        <path id="Path_37" data-name="Path 37" d="M163.38,279.55s-8.21,14.7-16.25,19.69-18.47,2.39-18.47,2.39,2.71-10.96,10.65-16.13S163.38,279.55,163.38,279.55Z" fill="#fff"/>
        <path id="Path_38" data-name="Path 38" d="M185.57,255.22s-10.77,12.59-19.61,15.77-18.68-1.54-18.68-1.54,4.66-10.1,13.43-13.47S185.57,255.22,185.57,255.22Z" fill="#fff"/>
      </g>
      <g id="Group_13" data-name="Group 13">
        <g id="Group_12" data-name="Group 12">
          <path id="Path_39" data-name="Path 39" d="M594.22,215.22s9.55,19.11,19.41,25.92,23.15,4.19,23.15,4.19-2.82-14.02-12.54-21.06S594.22,215.22,594.22,215.22Z" fill="#fff"/>
          <path id="Path_40" data-name="Path 40" d="M641.16,217.15s-2.2,17.35,1.06,26.75,12.71,14.26,12.71,14.26,4.24-10.65,1.16-20.13S641.16,217.15,641.16,217.15Z" fill="#fff"/>
          <path id="Path_41" data-name="Path 41" d="M671.67,246.51s-6.37,16.26-5.57,26.35,8.62,17.52,8.62,17.52,6.67-9.16,6.06-19.27S671.67,246.51,671.67,246.51Z" fill="#fff"/>
          <path id="Path_42" data-name="Path 42" d="M692.16,281.37s-8.65,16.05-9.34,26.82,5.89,19.97,5.89,19.97,7.9-8.51,8.79-19.27S692.16,281.37,692.16,281.37Z" fill="#fff"/>
          <path id="Path_43" data-name="Path 43" d="M705.04,320.77s-10.35,15.03-12.25,25.78,3.58,20.83,3.58,20.83,8.76-7.55,10.85-18.26S705.04,320.77,705.04,320.77Z" fill="#fff"/>
          <path id="Path_44" data-name="Path 44" d="M711.66,365.12s-13.44,12.7-17.72,23.12-1.28,21.97-1.28,21.97,10.19-5.51,14.65-15.84S711.66,365.12,711.66,365.12Z" fill="#fff"/>
          <path id="Path_45" data-name="Path 45" d="M710.01,408.88s-16.08,10.09-22.67,19.81-6.29,22.19-6.29,22.19,11.26-3.43,18-13.03S710.01,408.88,710.01,408.88Z" fill="#fff"/>
          <path id="Path_46" data-name="Path 46" d="M699.27,452.79s-17.65,6.66-25.95,14.94-10.38,20.73-10.38,20.73,11.66-1.05,20.08-9.19C691.45,471.15,699.27,452.79,699.27,452.79Z" fill="#fff"/>
          <path id="Path_47" data-name="Path 47" d="M671.4,377.99s-3.74,18.09-1.34,28.55,11.38,17.01,11.38,17.01,5.17-10.68,2.96-21.2S671.4,377.99,671.4,377.99Z" fill="#fff"/>
          <path id="Path_48" data-name="Path 48" d="M665.88,414.39s-6.81,17.13-6.29,27.96,8.12,19.13,8.12,19.13,6.91-9.52,6.59-20.36S665.88,414.39,665.88,414.39Z" fill="#fff"/>
          <path id="Path_49" data-name="Path 49" d="M652.41,449.43s-8.1,16.35-8.43,27.23,6.56,20.02,6.56,20.02,7.6-8.73,8.13-19.6S652.41,449.43,652.41,449.43Z" fill="#fff"/>
          <path id="Path_50" data-name="Path 50" d="M667.17,341.34s.58,18.36,5.37,27.74,15.09,13.23,15.09,13.23,2.55-11.65-2.07-21.13S667.17,341.34,667.17,341.34Z" fill="#fff"/>
          <path id="Path_51" data-name="Path 51" d="M656.42,306.25s4.27,17.52,10.86,25.36,17.46,9.05,17.46,9.05.15-11.82-6.29-19.81S656.42,306.25,656.42,306.25Z" fill="#fff"/>
          <path id="Path_52" data-name="Path 52" d="M638.73,279.55s8.21,14.7,16.25,19.69,18.47,2.39,18.47,2.39-2.71-10.96-10.65-16.13S638.73,279.55,638.73,279.55Z" fill="#fff"/>
          <path id="Path_53" data-name="Path 53" d="M616.54,255.22s10.77,12.59,19.61,15.77,18.68-1.54,18.68-1.54-4.66-10.1-13.43-13.47S616.54,255.22,616.54,255.22Z" fill="#fff"/>
        </g>
      </g>
      <circle id="Ellipse_9" data-name="Ellipse 9" cx="352.57" cy="352.57" r="352.57" transform="translate(48.48 46.44)" fill="none" stroke="#fff" stroke-miterlimit="10" stroke-width="3"/>
      <g id="Group_14" data-name="Group 14">
        <circle id="Ellipse_10" data-name="Ellipse 10" cx="392.95" cy="392.95" r="392.95" transform="translate(8.1 6.06)" stroke-dasharray="0.999 5.995" stroke="#fff" stroke-linecap="round" stroke-linejoin="round" stroke-width="2" fill="none"/>
      </g>
      <g id="Group_27" data-name="Group 27">
        <g id="Group_22" data-name="Group 22">
          <path id="Path_54" data-name="Path 54" d="M401.05,236.94,280.76,304.22H521.34Zm0,61.14a24.39,24.39,0,1,1,24.39-24.39A24.39,24.39,0,0,1,401.05,298.08Z" fill="#fff"/>
          <path id="Path_55" data-name="Path 55" d="M401.05,260.48l3.37,9.18,9.76.36-7.68,6.04,2.67,9.4-8.12-5.45-8.11,5.45,2.67-9.4-7.69-6.04,9.77-.36Z" fill="#fff"/>
          <path id="Path_56" data-name="Path 56" d="M537.53,314.11a3.1,3.1,0,0,1-3.15,3.05H267.72a3.1,3.1,0,0,1-3.15-3.05h0a3.1,3.1,0,0,1,3.15-3.05H534.38a3.1,3.1,0,0,1,3.15,3.05Z" fill="#fff"/>
          <g id="Group_21" data-name="Group 21">
            <g id="Group_16" data-name="Group 16">
              <g id="Group_15" data-name="Group 15">
                <rect id="Rectangle_38" data-name="Rectangle 38" width="41.98" height="18.13" transform="translate(294.28 323.92)" fill="#fff"/>
                <rect id="Rectangle_39" data-name="Rectangle 39" width="41.98" height="18.13" transform="translate(294.28 450.1)" fill="#fff"/>
              </g>
              <rect id="Rectangle_40" data-name="Rectangle 40" width="23.51" height="93.73" transform="translate(303.52 349.21)" fill="#fff"/>
            </g>
            <g id="Group_18" data-name="Group 18">
              <g id="Group_17" data-name="Group 17">
                <rect id="Rectangle_41" data-name="Rectangle 41" width="41.98" height="18.13" transform="translate(380.06 323.92)" fill="#fff"/>
                <rect id="Rectangle_42" data-name="Rectangle 42" width="41.98" height="18.13" transform="translate(380.06 450.1)" fill="#fff"/>
              </g>
              <rect id="Rectangle_43" data-name="Rectangle 43" width="23.51" height="93.73" transform="translate(389.3 349.21)" fill="#fff"/>
            </g>
            <g id="Group_20" data-name="Group 20">
              <g id="Group_19" data-name="Group 19">
                <rect id="Rectangle_44" data-name="Rectangle 44" width="41.98" height="18.13" transform="translate(465.85 323.92)" fill="#fff"/>
                <rect id="Rectangle_45" data-name="Rectangle 45" width="41.98" height="18.13" transform="translate(465.85 450.1)" fill="#fff"/>
              </g>
              <rect id="Rectangle_46" data-name="Rectangle 46" width="23.51" height="93.73" transform="translate(475.08 349.21)" fill="#fff"/>
            </g>
          </g>
          <path id="Path_57" data-name="Path 57" d="M543.88,495.27c0,5.29-3.97,9.58-8.87,9.58H267.09c-4.9,0-8.87-4.29-8.87-9.58V484.59c0-5.29,3.97-9.58,8.87-9.58H535.01c4.9,0,8.87,4.29,8.87,9.58Z" fill="#fff"/>
        </g>
        <circle id="Ellipse_11" data-name="Ellipse 11" cx="211.49" cy="211.49" r="211.49" transform="translate(101.959 399.011) rotate(-45)" fill="none" stroke="#fff" stroke-miterlimit="10" stroke-width="2"/>
        <g id="Group_24" data-name="Group 24">
          <path id="Path_58" data-name="Path 58" d="M401.05,524.42l8.01,17.51,19.13,2.21-14.18,13.02,3.81,18.88-16.77-9.46-16.77,9.46,3.82-18.88-14.18-13.02,19.13-2.21Z" fill="#fff"/>
          <g id="Group_23" data-name="Group 23">
            <path id="Path_59" data-name="Path 59" d="M342.35,530.31l4.7,10.27,11.22,1.29-8.32,7.64,2.24,11.07-9.84-5.55-9.83,5.55,2.24-11.07-8.32-7.64,11.22-1.29Z" fill="#fff"/>
            <path id="Path_60" data-name="Path 60" d="M459.75,530.31l4.7,10.27,11.21,1.29-8.31,7.64,2.24,11.07-9.84-5.55-9.83,5.55,2.23-11.07-8.31-7.64,11.22-1.29Z" fill="#fff"/>
          </g>
        </g>
        <g id="Group_25" data-name="Group 25">
          <line id="Line_2" data-name="Line 2" x2="48.52" transform="translate(192.54 378.3)" fill="none" stroke="#fff" stroke-linecap="round" stroke-linejoin="round" stroke-miterlimit="10" stroke-width="1.5"/>
          <line id="Line_3" data-name="Line 3" x2="48.52" transform="translate(192.54 399.01)" fill="none" stroke="#fff" stroke-linecap="round" stroke-linejoin="round" stroke-miterlimit="10" stroke-width="1.5"/>
          <line id="Line_4" data-name="Line 4" x2="48.52" transform="translate(192.54 419.71)" fill="none" stroke="#fff" stroke-linecap="round" stroke-linejoin="round" stroke-miterlimit="10" stroke-width="1.5"/>
        </g>
        <g id="Group_26" data-name="Group 26">
          <line id="Line_5" data-name="Line 5" x2="48.53" transform="translate(560.04 378.3)" fill="none" stroke="#fff" stroke-linecap="round" stroke-linejoin="round" stroke-miterlimit="10" stroke-width="1.5"/>
          <line id="Line_6" data-name="Line 6" x2="48.53" transform="translate(560.04 399.01)" fill="none" stroke="#fff" stroke-linecap="round" stroke-linejoin="round" stroke-miterlimit="10" stroke-width="1.5"/>
          <line id="Line_7" data-name="Line 7" x2="48.53" transform="translate(560.04 419.71)" fill="none" stroke="#fff" stroke-linecap="round" stroke-linejoin="round" stroke-miterlimit="10" stroke-width="1.5"/>
        </g>
      </g>
      <g id="Group_28" data-name="Group 28">
        <path id="Path_61" data-name="Path 61" d="M243.91,148.06a11.2,11.2,0,0,0-5.35,9.67q-.105,6.225,4.85,13.77,10.32,15.675,22.24,7.83a29.5,29.5,0,0,0,6.33-5.6,84.481,84.481,0,0,0,5.21-6.89l8.17,12.41a44.953,44.953,0,0,1-13.4,13.13q-12.3,8.1-23.55,5.27t-20.13-16.31a39.417,39.417,0,0,1-6.58-16.92,27.239,27.239,0,0,1,2.67-15.84,33.048,33.048,0,0,1,11.77-12.67,46.3,46.3,0,0,1,19.35-7.25l3.11,14.51a61.6,61.6,0,0,0-7.58,1.58A26.115,26.115,0,0,0,243.91,148.06Z" fill="#fff"/>
        <path id="Path_62" data-name="Path 62" d="M329.08,165.18l-25-41.78-.39.1q4.005,11.31,5.73,17.71l7.33,27.28-15.03,4.04-16.88-62.8,22.59-6.07,25.08,41.07.34-.09.86-48.04,22.64-6.08,16.88,62.8-15.59,4.19-7.4-27.53c-.38-1.43-.79-3.03-1.22-4.79s-1.38-6.09-2.87-13l-.39.1-.54,48.55Z" fill="#fff"/>
        <path id="Path_63" data-name="Path 63" d="M441.43,111.91q-.555,10.89-7.28,16.48t-18.54,5l-4.93-.25-1.1,21.54-17.55-.9,3.32-64.94L417.83,90q12.3.63,18.2,6.32T441.43,111.91Zm-30.02,6.93,3.2.16a8.77,8.77,0,0,0,6.4-1.9,8.09,8.09,0,0,0,2.65-6.01q.33-6.57-6.95-6.95l-4.53-.23Z" fill="#fff"/>
        <path id="Path_64" data-name="Path 64" d="M481.97,168.12l-16.78-5.21,15.01-48.39-15.17-4.7,4.26-13.72,47.07,14.6-4.26,13.72-15.12-4.69Z" fill="#fff"/>
        <path id="Path_65" data-name="Path 65" d="M534.9,194.26l-15.03-9.09,26.22-43.35L532.5,133.6l7.43-12.29,42.17,25.5-7.43,12.29-13.55-8.19Z" fill="#fff"/>
      </g>
      <g id="Group_30" data-name="Group 30">
        <g id="Group_29" data-name="Group 29">
          <path id="Path_66" data-name="Path 66" d="M141.09,582.14l-4.73-7.29,8.53-8.63q.525-.555,2.16-2.1c1.09-1.03,2.02-1.86,2.79-2.51-.73.36-1.66.76-2.78,1.23s-2.17.88-3.13,1.24-4.87,1.82-11.71,4.37l-4.73-7.29,19.16-20.45,3.86,5.95-9.83,9.9c-2.16,2.2-3.93,3.89-5.29,5.07,1.15-.55,2.75-1.25,4.79-2.08s3.77-1.49,5.16-1.96l9.94-3.58,3.7,5.71-7.37,7.55q-1.755,1.845-4.13,4.12c-1.59,1.52-2.79,2.62-3.61,3.32,1.24-.61,3.49-1.54,6.73-2.79l13.11-4.91,3.86,5.95Z" fill="#fff"/>
          <path id="Path_67" data-name="Path 67" d="M160.97,607.29l-10.25-12.48,21.01-17.27,10.25,12.48-4.56,3.75-5.59-6.8-3.31,2.72,5.17,6.3-4.56,3.75-5.17-6.3-3.97,3.26,5.59,6.8Z" fill="#fff"/>
          <path id="Path_68" data-name="Path 68" d="M189.83,622.95l-6.73,7.26-5.39-5,18.5-19.94,6.53,6.06q8.13,7.545,2.66,13.43-3.21,3.465-8.36,2.22l-2.25,14.08-6.11-5.67,2.5-11.18Zm3.76-4.06,1.01.94c1.88,1.75,3.6,1.79,5.14.12,1.27-1.37.99-2.92-.86-4.63l-1.06-.99Z" fill="#fff"/>
          <path id="Path_69" data-name="Path 69" d="M213.7,655.78l-12.78-9.88,16.64-21.52,12.78,9.88-3.61,4.67-6.96-5.38-2.62,3.38,6.45,4.99-3.61,4.67-6.45-4.98-3.14,4.06,6.96,5.38Z" fill="#fff"/>
          <path id="Path_70" data-name="Path 70" d="M236.04,670.63l1.6-5.02-7.46-4.73-3.89,3.57-6.82-4.32,22.12-18.31,8.28,5.25-7.04,27.88Zm3.53-10.93,1.4-4.4c.3-.98.71-2.25,1.22-3.79s.9-2.63,1.16-3.27c-.43.47-1.18,1.24-2.23,2.29s-3.2,3.07-6.44,6.07Z" fill="#fff"/>
          <path id="Path_71" data-name="Path 71" d="M277.31,676.53q-3.015,6.105-8.02,7.74t-11.08-1.38l-7.89-3.91,12.07-24.38,8.44,4.18q5.865,2.91,7.58,7.49T277.31,676.53Zm-6.95-3.15c1.11-2.23,1.48-4.11,1.14-5.63a5.441,5.441,0,0,0-3.23-3.61l-1.92-.95-6.76,13.65,1.47.73a5.921,5.921,0,0,0,5.26.44C267.82,677.31,269.18,675.77,270.36,673.38Z" fill="#fff"/>
          <path id="Path_72" data-name="Path 72" d="M305.45,702.12l-6.98-2.29,6.6-20.14-6.31-2.07,1.87-5.71,19.59,6.42-1.87,5.71-6.29-2.06Z" fill="#fff"/>
          <path id="Path_73" data-name="Path 73" d="M343.54,711.75l-7.21-1.59,2.39-10.83-8.34-1.84-2.39,10.83-7.21-1.59,5.87-26.56,7.21,1.59-2.18,9.85,8.34,1.84,2.18-9.85,7.21,1.59Z" fill="#fff"/>
          <path id="Path_74" data-name="Path 74" d="M370.74,715.42l-16.03-1.96,3.29-27,16.03,1.96-.71,5.85-8.74-1.07-.52,4.25,8.09.99-.71,5.85-8.09-.99-.62,5.1,8.74,1.07Z" fill="#fff"/>
          <path id="Path_75" data-name="Path 75" d="M402.47,716.73l-7.24.12-.44-27.2,16.07-.26.1,5.9-8.84.14.08,5.19,8.15-.13.1,5.9-8.15.13Z" fill="#fff"/>
          <path id="Path_76" data-name="Path 76" d="M441.32,687l1.59,16.29c.35,3.54-.39,6.38-2.2,8.52s-4.61,3.4-8.39,3.77q-5.535.54-8.79-2c-2.17-1.7-3.42-4.31-3.77-7.86l-1.61-16.46,7.35-.72,1.55,15.89a6.554,6.554,0,0,0,1.48,4.06,4.632,4.632,0,0,0,6.41-.62,6.911,6.911,0,0,0,.6-4.31l-1.55-15.85Z" fill="#fff"/>
          <path id="Path_77" data-name="Path 77" d="M462.66,688.76a4.711,4.711,0,0,0-3.59,2.92,10.339,10.339,0,0,0-.27,6.1q1.56,7.7,7.41,6.51a12.337,12.337,0,0,0,3.33-1.18,34.815,34.815,0,0,0,3.1-1.86l1.23,6.09a18.956,18.956,0,0,1-7.25,3q-6.03,1.215-9.96-1.63t-5.26-9.47a16.394,16.394,0,0,1,.09-7.59,11.438,11.438,0,0,1,3.51-5.73,13.886,13.886,0,0,1,6.54-3.08,19.4,19.4,0,0,1,8.64.21l-1.06,6.12a26.427,26.427,0,0,0-3.19-.57A10.7,10.7,0,0,0,462.66,688.76Z" fill="#fff"/>
          <path id="Path_78" data-name="Path 78" d="M506.74,699.02l-7.93,2.43-8.19-8.37-1.7,1.88,2.66,8.7-7.06,2.16-7.96-26.01,7.06-2.16,3.46,11.3a32.573,32.573,0,0,1,1.13-3.99l3.02-9.64,7.69-2.35-4.63,14.16Z" fill="#fff"/>
          <path id="Path_79" data-name="Path 79" d="M514.23,696l-9.99-25.3,6.87-2.71,9.99,25.3Z" fill="#fff"/>
          <path id="Path_80" data-name="Path 80" d="M554.65,677.51l-8.62,4.31-17.46-12.69-.15.08q2.34,3.885,3.41,6.01l5.49,10.96-5.82,2.92-12.17-24.33,8.58-4.3,17.31,12.47.1-.05c-1.38-2.37-2.45-4.3-3.19-5.79l-5.5-11,5.86-2.93Z" fill="#fff"/>
          <path id="Path_81" data-name="Path 81" d="M565.1,652.37l9.84-6.4,7.99,12.29a32.363,32.363,0,0,1-7.92,7.1q-5.265,3.435-10.14,2.24-4.86-1.185-8.55-6.85-3.585-5.52-2.44-10.64t6.83-8.81a23.822,23.822,0,0,1,4.33-2.24,20.352,20.352,0,0,1,4-1.14l1.19,6.1a14.35,14.35,0,0,0-6.2,2.3,6.131,6.131,0,0,0-3.03,4.47,9.019,9.019,0,0,0,1.79,5.97,9.226,9.226,0,0,0,4.5,4.01,5.523,5.523,0,0,0,4.94-.82,12.757,12.757,0,0,0,2.35-1.91l-2.32-3.57-4.07,2.65Z" fill="#fff"/>
          <path id="Path_82" data-name="Path 82" d="M611.78,617.82q4.53,5.085,4.18,10.33t-5.42,9.76l-6.57,5.85-18.08-20.32,7.03-6.26q4.89-4.35,9.78-4.22Q607.56,613.095,611.78,617.82Zm-5.53,5.27c-1.66-1.86-3.25-2.92-4.79-3.16a5.471,5.471,0,0,0-4.56,1.64l-1.6,1.42,10.13,11.38,1.22-1.09a5.935,5.935,0,0,0,2.38-4.72C608.95,626.91,608.02,625.08,606.25,623.09Z" fill="#fff"/>
          <path id="Path_83" data-name="Path 83" d="M635.61,592.98c3.4,3.07,5.22,6.23,5.49,9.5s-1.06,6.5-3.96,9.71q-4.29,4.755-9.24,4.88t-10.05-4.48q-5.04-4.56-5.42-9.47t3.96-9.72q4.35-4.815,9.23-4.92C628.87,588.41,632.21,589.91,635.61,592.98Zm-12.54,13.89q5.85,5.3,9.53,1.22a4.7,4.7,0,0,0,1.35-4.36c-.35-1.52-1.52-3.19-3.53-5s-3.81-2.83-5.38-3.02a4.657,4.657,0,0,0-4.18,1.73Q617.155,601.535,623.07,606.87Z" fill="#fff"/>
          <path id="Path_84" data-name="Path 84" d="M641.92,571.38a4.684,4.684,0,0,0-.68,4.57,10.3,10.3,0,0,0,3.92,4.68q6.345,4.635,9.86-.19a12.327,12.327,0,0,0,1.66-3.12,33.157,33.157,0,0,0,1.03-3.46l5.02,3.67a18.979,18.979,0,0,1-3.33,7.11q-3.63,4.965-8.46,5.52-4.815.54-10.27-3.44a16.442,16.442,0,0,1-5.05-5.66,11.358,11.358,0,0,1-1.27-6.6,13.965,13.965,0,0,1,2.75-6.69,19.359,19.359,0,0,1,6.52-5.67l3.34,5.23a25,25,0,0,0-2.74,1.73A10.553,10.553,0,0,0,641.92,571.38Z" fill="#fff"/>
          <path id="Path_85" data-name="Path 85" d="M671.13,547.48l-3.02,5.35-15.8-7.82,3.95-7Zm2.22,9.31a3.443,3.443,0,0,1-1.8-2.17,4.117,4.117,0,0,1,.62-3.01,4.007,4.007,0,0,1,2.23-2.04,3.485,3.485,0,0,1,2.77.44,3.386,3.386,0,0,1,1.78,2.17,4.007,4.007,0,0,1-.58,2.93,4.145,4.145,0,0,1-2.24,2.05A3.307,3.307,0,0,1,673.35,556.79Z" fill="#fff"/>
        </g>
      </g>
    </g>
  </g>
</svg>
